PathFileType	4	(X/Y/Z)	 s05c0403.trc
DataRate	CameraRate	NumFrames	NumMarkers	Units	OrigDataRate	OrigDataStartFrame	OrigNumFrames
200	200	4	49	mm	200	1751	2000
Frame#	Time	racr			lacr			c7			jug			rlel			rdr			llel			ldr			s2			lic			ric			lasi			rasi			rpsi			lpsi			rgt			lgt			rth1			rth2			rth3			rth4			rlfc			rsh1			rsh2			rsh3			rsh4			rlmal			rmmal			rcal			rtoe			rmt5			lth1			lth2			lth4			lth3			llfc			lmfc			lsh1			lsh2			lsh3			lsh4			llmal			lmmal			lcal			ltoe			lmt5			SBIKE			LBIKE			RBIKE			
		X1	Y1	Z1	X2	Y2	Z2	X3	Y3	Z3	X4	Y4	Z4	X5	Y5	Z5	X6	Y6	Z6	X7	Y7	Z7	X8	Y8	Z8	X9	Y9	Z9	X10	Y10	Z10	X11	Y11	Z11	X12	Y12	Z12	X13	Y13	Z13	X14	Y14	Z14	X15	Y15	Z15	X16	Y16	Z16	X17	Y17	Z17	X18	Y18	Z18	X19	Y19	Z19	X20	Y20	Z20	X21	Y21	Z21	X22	Y22	Z22	X23	Y23	Z23	X24	Y24	Z24	X25	Y25	Z25	X26	Y26	Z26	X27	Y27	Z27	X28	Y28	Z28	X29	Y29	Z29	X30	Y30	Z30	X31	Y31	Z31	X32	Y32	Z32	X33	Y33	Z33	X34	Y34	Z34	X35	Y35	Z35	X36	Y36	Z36	X37	Y37	Z37	X38	Y38	Z38	X39	Y39	Z39	X40	Y40	Z40	X41	Y41	Z41	X42	Y42	Z42	X43	Y43	Z43	X44	Y44	Z44	X45	Y45	Z45	X46	Y46	Z46	X47	Y47	Z47	X48	Y48	Z48	X49	Y49	Z49	
1751	8.7550	663.581765	1257.922496	-95.003613	641.828292	1299.888530	-378.666200	643.904140	1345.180097	-237.248008	589.080047	1190.250019	-244.589925	525.950629	1093.107819	96.873529	668.583765	955.568949	-22.781426	482.101927	1117.459275	-561.951579	676.006502	970.750258	-487.720210	34.064807	1219.484349	-247.750763	190.835461	1202.961238	-388.912141	182.700739	1185.931602	-110.715632	209.238979	1137.203836	-353.816774	202.208589	1122.330841	-143.040989	82.237224	1251.441927	-204.520433	87.590811	1259.717799	-290.172066	110.763332	1087.310946	-83.243674	82.936541	1122.823595	-424.840110	202.302070	1018.302815	-71.627297	285.195727	986.057379	-68.104588	338.678291	916.218034	-67.876931	306.166561	1013.712209	-81.339315	443.735590	811.242582	-94.039122	346.948847	763.025412	-70.865480	288.323737	699.039860	-89.250923	208.310105	668.831818	-95.113162	307.597076	677.995983	-115.863379	101.981719	602.139318	-109.036573	133.319710	614.653496	-185.113710	31.766039	631.407223	-156.907933	204.537522	391.484194	-151.167090	123.451750	456.361000	-86.321802	142.490807	987.177035	-456.502675	205.350022	928.947033	-457.768385	236.663507	945.953792	-445.894619	230.081599	841.914881	-460.916552	294.543405	710.186700	-434.607699	287.737870	695.535621	-327.738778	248.780749	588.673324	-458.116062	256.880886	502.222079	-446.940243	219.656362	421.563064	-443.529856	288.980144	499.659938	-426.029245	206.333188	304.244061	-434.179387	236.431634	338.728056	-364.008852	142.682187	277.812421	-389.652049	426.001813	199.650303	-393.393666	315.331719	193.268620	-457.334063	-164.259224	902.908743	-265.951623	-43.386616	84.973778	-474.776192	-51.700763	80.213239	-77.280220	
1752	8.7600	660.949917	1258.217383	-94.276991	639.212739	1300.301725	-377.651093	641.042500	1345.191793	-236.377863	586.370135	1190.219409	-243.773013	524.631915	1092.183160	97.173144	668.572051	955.806391	-22.611469	481.462617	1117.046654	-561.619052	675.626266	970.795165	-486.516395	31.562717	1217.942398	-248.920002	188.968345	1201.211126	-389.444512	179.438557	1185.895011	-111.151116	207.289496	1135.477036	-354.048340	199.494888	1122.460546	-143.223464	79.469417	1250.479175	-206.098789	85.124412	1258.233065	-291.553766	108.528202	1087.800208	-82.961095	80.984115	1119.983678	-425.169030	201.372753	1021.202027	-71.804811	285.115453	991.257686	-68.038752	340.581181	922.590250	-68.550356	305.371929	1019.247327	-81.461378	447.823262	820.322635	-93.916139	351.301390	771.605582	-71.396913	293.060776	707.161542	-89.661828	213.273234	676.572261	-95.803365	312.530324	686.073489	-116.129022	107.113756	608.901655	-109.944839	138.011909	621.249167	-186.320622	36.565741	636.812987	-158.438241	214.801426	400.899954	-149.125597	131.022658	463.740828	-86.347244	138.973211	983.584672	-456.669020	200.674627	924.062199	-457.905545	232.295718	940.398074	-445.930589	223.663887	836.522344	-460.734640	286.306480	704.405079	-433.986050	279.106157	689.875809	-327.177817	240.503274	583.391423	-457.867419	248.721247	496.892287	-446.805916	211.559914	416.168507	-443.176400	280.952623	494.313277	-426.086833	199.228290	298.965237	-434.165237	229.263726	333.296282	-363.912153	135.648352	273.071561	-389.651343	418.174307	192.071594	-393.532613	307.403700	186.823261	-457.386644	-164.095145	902.882147	-266.516824	-43.390837	84.965468	-474.757620	-51.707894	80.195649	-77.275702	
1753	8.7650	658.355604	1258.449071	-93.578344	636.551145	1300.545378	-376.624043	638.175240	1345.216392	-235.633667	583.635310	1190.231963	-243.038869	523.202357	1091.112250	97.428329	668.327356	955.792182	-22.091024	480.631604	1116.506504	-561.264105	675.207891	970.805662	-485.452184	29.089854	1216.503200	-250.099365	187.078326	1199.326870	-390.030605	176.212507	1185.932839	-111.498590	205.327014	1133.759024	-354.314870	197.013821	1122.686602	-143.312055	76.654032	1249.570923	-207.583722	82.608321	1256.790403	-292.969561	106.365865	1088.584805	-82.693670	78.946105	1117.228205	-425.382285	200.308927	1024.027058	-72.093637	284.800729	996.110502	-68.225982	341.955126	928.799436	-68.394314	304.412818	1024.586342	-81.561048	451.765209	829.283373	-93.726039	355.572426	779.939960	-71.863885	297.813874	715.196533	-90.001296	217.989523	684.263095	-96.420497	317.152461	694.187190	-116.305948	112.232703	615.070954	-110.944385	144.433601	627.722513	-186.584834	41.393479	641.551128	-159.981014	224.496317	409.546885	-148.454504	138.547240	470.561485	-86.452450	135.506762	980.133968	-456.712157	196.062835	919.524076	-457.940980	228.004134	935.182846	-445.910526	217.058799	831.322637	-460.615902	278.513140	699.157743	-433.306062	271.598735	685.150208	-326.397466	232.500593	578.572799	-457.551838	240.692065	492.112573	-446.635657	203.453748	411.464198	-442.873299	272.972707	489.471118	-426.032585	191.889986	294.124852	-434.140895	221.881318	328.340225	-363.728059	128.280904	268.945674	-389.607529	409.984635	184.969392	-393.675130	299.121586	180.827402	-457.436901	-164.154187	902.891189	-265.821002	-43.391658	84.969638	-474.754572	-51.720497	80.186390	-77.263712	
1754	8.7700	655.664136	1258.973480	-93.005227	633.790596	1300.850203	-375.591908	635.263792	1345.383121	-234.872606	580.942624	1190.413574	-242.290154	521.902651	1090.241640	97.597757	668.120090	955.745642	-21.453554	480.078841	1116.227930	-560.997170	674.841191	970.835027	-484.638689	26.656515	1215.034879	-251.157813	185.039552	1197.607794	-390.496095	173.021138	1186.082471	-111.860116	203.240960	1132.004475	-354.447685	194.836203	1123.003039	-143.288027	73.901270	1248.639002	-209.103992	80.049338	1255.302536	-294.135487	104.277610	1089.398024	-82.249634	76.894240	1114.512680	-425.570853	199.123661	1026.754414	-72.389736	284.235110	1000.710640	-68.356931	342.979319	934.872592	-68.180982	303.031180	1029.656191	-81.831649	455.308284	838.067161	-93.414055	359.490281	788.342812	-72.306567	302.253071	722.987340	-90.386293	222.745987	691.491011	-96.963635	321.993846	701.902510	-116.314827	117.574363	620.720266	-111.950586	150.237384	633.489518	-187.039576	46.213795	645.641144	-161.408806	233.280838	416.745047	-148.735869	146.649948	476.935735	-86.591404	131.957209	977.026469	-456.676385	191.603766	915.164228	-457.823650	223.788059	930.378310	-445.795936	211.129601	826.823905	-460.507249	271.139356	694.470402	-432.632758	263.714782	679.660584	-326.221301	224.667917	574.273565	-456.789491	232.800592	487.880221	-446.362530	195.386879	407.314682	-442.650929	265.147535	485.143371	-425.886678	184.191185	289.878826	-433.902673	214.331442	323.874746	-363.467016	120.663939	265.396218	-389.463535	401.434651	178.331636	-393.770958	290.498453	175.448065	-457.485589	-164.227173	902.897349	-266.020009	-43.390026	84.978011	-474.743898	-51.702718	80.186827	-77.258409	
